<?xml version="1.0" standalone="no"?>
<!DOCTYPE svg PUBLIC "-//W3C//DTD SVG 20010904//EN"
 "http://www.w3.org/TR/2001/REC-SVG-20010904/DTD/svg10.dtd">
<svg version="1.0" xmlns="http://www.w3.org/2000/svg"
 width="1080.000000pt" height="1080.000000pt" viewBox="0 0 1080.000000 1080.000000"
 preserveAspectRatio="xMidYMid meet">

<g transform="translate(0.000000,1080.000000) scale(0.100000,-0.100000)"
fill="#000000" stroke="none">
<path d="M5720 9534 c-19 -2 -82 -8 -140 -14 -170 -16 -423 -75 -605 -140
-171 -61 -367 -148 -360 -160 2 -4 28 -10 56 -13 62 -8 156 -29 304 -68 118
-32 152 -43 288 -95 544 -210 1025 -598 1354 -1092 79 -118 225 -400 287 -554
75 -183 228 -342 416 -430 122 -57 194 -72 350 -73 132 0 153 2 235 29 162 51
269 118 379 237 161 174 238 404 215 648 -17 189 -80 321 -284 596 -189 254
-436 485 -710 663 -156 101 -162 105 -305 175 -295 144 -602 238 -910 277 -86
11 -506 22 -570 14z"/>
<path d="M3740 9235 c-134 -27 -448 -131 -528 -174 -9 -6 -63 -32 -119 -60
-499 -243 -936 -662 -1217 -1165 -171 -307 -272 -603 -333 -974 -24 -152 -27
-191 -26 -432 0 -199 4 -288 16 -359 9 -52 19 -96 21 -98 3 -3 11 10 19 29 19
45 99 187 155 273 191 294 469 585 754 789 116 83 247 159 403 235 358 174
640 251 1055 287 267 22 457 113 611 291 376 433 205 1114 -331 1323 -126 49
-336 64 -480 35z"/>
<path d="M8644 7290 c3 -19 11 -69 18 -110 9 -50 13 -175 13 -380 -1 -288 -2
-313 -28 -460 -48 -267 -117 -494 -218 -717 -85 -189 -138 -282 -279 -487
-120 -175 -285 -351 -538 -574 -131 -115 -218 -264 -258 -441 -29 -131 -30
-222 -3 -347 57 -263 225 -477 459 -586 137 -64 183 -73 355 -73 147 0 166 2
242 27 195 65 301 142 452 328 163 201 299 423 396 650 20 47 42 99 50 115 35
81 96 291 129 445 30 140 41 217 57 428 23 291 -20 678 -107 972 -28 92 -69
213 -84 245 -5 11 -27 63 -50 115 -128 293 -324 585 -549 820 l-62 65 5 -35z"/>
<path d="M1925 5886 c-254 -57 -461 -218 -577 -451 -14 -27 -38 -93 -54 -145
l-29 -95 1 -305 c0 -173 5 -331 11 -365 6 -33 21 -114 33 -179 11 -66 25 -126
29 -135 5 -9 11 -33 15 -54 8 -43 56 -191 92 -287 98 -255 251 -526 418 -740
75 -96 99 -123 226 -254 224 -230 489 -420 784 -562 271 -129 492 -200 792
-253 l41 -7 -70 70 c-114 116 -209 233 -315 386 -153 220 -292 503 -370 750
-45 144 -55 179 -73 270 -52 252 -54 271 -53 610 0 258 3 345 16 420 27 149
55 282 70 320 9 24 13 86 13 190 0 135 -3 164 -24 230 -89 280 -276 470 -556
565 -69 24 -99 28 -220 31 -92 2 -160 -1 -200 -10z"/>
<path d="M4570 3124 c-65 -13 -190 -61 -263 -102 -119 -66 -256 -207 -319
-328 -132 -251 -130 -549 4 -795 77 -140 213 -272 353 -342 222 -111 598 -210
896 -238 140 -13 546 -6 649 11 243 39 589 127 635 160 6 4 28 13 50 20 54 17
368 170 430 210 225 147 338 235 496 388 191 185 325 349 461 567 58 93 119
207 114 213 -2 1 -39 -15 -82 -37 -599 -297 -1309 -376 -1959 -217 -210 52
-486 157 -655 249 -30 17 -74 41 -98 54 -23 12 -67 38 -97 57 -78 51 -124 73
-212 102 -67 22 -99 26 -228 29 -82 2 -161 1 -175 -1z"/>
</g>
</svg>
