<?xml version="1.0" standalone="no"?>
<!DOCTYPE svg PUBLIC "-//W3C//DTD SVG 20010904//EN"
 "http://www.w3.org/TR/2001/REC-SVG-20010904/DTD/svg10.dtd">
<svg version="1.0" xmlns="http://www.w3.org/2000/svg"
 width="1080.000000pt" height="1080.000000pt" viewBox="0 0 1080.000000 1080.000000"
 preserveAspectRatio="xMidYMid meet">

<g transform="translate(0.000000,1080.000000) scale(0.100000,-0.100000)"
fill="#000000" stroke="none">
<path d="M5655 9960 c-189 -16 -401 -61 -571 -121 -129 -45 -297 -121 -287
-129 4 -4 51 -14 103 -23 421 -72 866 -305 1180 -617 222 -220 377 -448 504
-744 106 -244 226 -364 433 -432 78 -26 102 -29 208 -28 102 0 132 5 202 28
217 71 389 261 438 482 25 109 17 264 -18 362 -68 193 -328 519 -571 717 -259
209 -557 358 -882 441 -233 59 -515 83 -739 64z"/>
<path d="M4110 9725 c-309 -63 -653 -229 -921 -442 -391 -312 -674 -755 -793
-1244 -67 -276 -82 -614 -40 -881 l7 -40 51 99 c357 680 1065 1137 1856 1198
159 12 279 57 387 144 160 129 246 309 246 516 0 192 -56 328 -193 466 -70 70
-101 94 -170 127 -140 67 -285 86 -430 57z"/>
<path d="M7993 8175 c35 -187 34 -575 -1 -765 -44 -234 -102 -410 -201 -615
-140 -286 -316 -515 -568 -736 -181 -160 -256 -298 -269 -498 -20 -300 174
-582 461 -671 98 -31 241 -37 338 -16 174 39 314 140 456 331 234 311 376 651
438 1050 25 154 24 507 0 660 -56 342 -175 652 -356 921 -79 119 -210 283
-271 339 l-33 30 6 -30z"/>
<path d="M2664 7066 c-204 -47 -368 -173 -454 -350 -67 -137 -75 -180 -74
-441 0 -257 15 -377 79 -608 212 -776 840 -1393 1617 -1591 73 -19 155 -38
183 -42 l50 -7 -65 72 c-256 284 -417 556 -524 882 -81 247 -111 465 -103 758
5 211 19 324 60 481 33 129 31 297 -7 405 -70 204 -219 352 -420 420 -98 33
-249 42 -342 21z"/>
<path d="M4712 4860 c-169 -45 -336 -176 -415 -327 -102 -196 -102 -430 -1
-624 47 -90 153 -203 235 -252 138 -81 407 -166 649 -204 173 -27 510 -24 684
6 497 84 907 293 1251 636 129 128 219 238 307 375 66 101 132 220 124 220 -4
0 -37 -15 -74 -34 -189 -95 -450 -176 -682 -213 -157 -24 -499 -24 -655 0
-303 48 -595 153 -849 306 -121 72 -160 90 -243 112 -99 25 -233 24 -331 -1z"/>
<path d="M3129 2950 c-94 -17 -169 -70 -214 -152 -27 -48 -30 -62 -30 -143 0
-78 4 -97 27 -141 31 -60 83 -108 147 -137 60 -27 213 -29 281 -3 92 35 90 31
90 166 l0 120 -60 0 -59 0 -3 -87 -3 -88 -44 -14 c-98 -31 -215 32 -241 129
-24 87 16 182 92 221 61 31 161 24 213 -15 l37 -29 42 42 41 42 -34 29 c-61
52 -184 78 -282 60z"/>
<path d="M7520 2946 c-70 -15 -110 -37 -156 -83 -58 -58 -79 -114 -79 -213 0
-77 3 -90 31 -140 118 -210 449 -211 567 -1 62 110 43 261 -44 351 -76 78
-203 113 -319 86z m170 -126 c48 -25 77 -64 91 -126 44 -193 -206 -317 -325
-162 -52 69 -55 157 -7 235 43 69 160 95 241 53z"/>
<path d="M4030 2656 l0 -296 65 0 64 0 3 83 3 82 60 3 61 3 58 -86 59 -85 69
0 c37 0 68 2 68 5 0 2 -27 43 -61 91 l-60 86 41 35 c55 48 73 85 73 158 0 67
-16 105 -60 147 -54 52 -94 61 -275 66 l-168 4 0 -296z m315 169 c34 -17 55
-50 55 -90 0 -73 -50 -105 -164 -105 l-76 0 0 105 0 105 76 0 c48 0 88 -6 109
-15z"/>
<path d="M5110 2749 c0 -232 7 -265 65 -325 66 -69 181 -92 296 -58 65 19 132
83 148 141 6 21 11 129 11 241 l0 202 -59 0 -59 0 -4 -192 c-3 -157 -7 -199
-21 -225 -49 -92 -184 -94 -229 -3 -15 30 -18 64 -18 228 l0 192 -65 0 -65 0
0 -201z"/>
<path d="M6240 2656 l0 -296 65 0 65 0 0 78 0 79 104 6 c113 6 164 22 210 65
39 37 56 81 56 147 0 66 -17 110 -56 147 -55 51 -95 61 -276 66 l-168 5 0
-297z m315 169 c61 -30 73 -104 26 -157 -28 -32 -32 -33 -120 -36 l-91 -4 0
106 0 106 76 0 c48 0 88 -6 109 -15z"/>
<path d="M3383 1840 c-225 -40 -381 -202 -413 -431 -35 -246 110 -479 343
-551 99 -30 236 -30 327 1 194 67 319 229 337 437 20 237 -116 451 -332 522
-72 24 -191 34 -262 22z m202 -234 c103 -48 150 -132 149 -266 -1 -171 -88
-275 -240 -288 -111 -9 -198 37 -250 130 -27 49 -29 61 -29 158 0 98 2 109 30
159 49 89 121 130 230 130 43 1 74 -6 110 -23z"/>
<path d="M7132 1840 c-76 -11 -174 -62 -212 -111 -84 -105 -78 -268 12 -356
53 -50 92 -70 236 -118 140 -46 182 -78 182 -136 0 -127 -205 -128 -236 -2 -6
23 -8 23 -131 23 l-126 0 5 -43 c15 -132 127 -231 293 -257 248 -40 445 90
445 293 0 155 -56 208 -325 307 -151 55 -188 97 -150 170 20 39 78 57 129 40
39 -13 76 -52 76 -81 0 -18 10 -19 130 -19 148 0 142 -4 115 87 -31 105 -135
183 -270 203 -78 11 -97 11 -173 0z"/>
<path d="M8000 1839 c-125 -21 -227 -98 -255 -192 -30 -102 -14 -193 47 -262
48 -55 96 -80 246 -130 160 -53 208 -98 177 -171 -26 -62 -117 -81 -182 -38
-14 9 -32 34 -41 55 l-15 39 -125 0 -125 0 6 -45 c19 -134 133 -232 299 -255
248 -36 438 90 438 293 0 79 -18 128 -63 175 -40 42 -98 72 -240 124 -62 22
-126 51 -144 64 -91 68 -11 191 101 154 39 -13 76 -52 76 -81 0 -18 10 -19
130 -19 l130 0 0 25 c0 51 -40 132 -86 175 -57 52 -112 77 -200 90 -79 11 -99
11 -174 -1z"/>
<path d="M9005 1840 c-201 -36 -365 -190 -406 -381 -17 -79 -6 -242 20 -308
58 -145 177 -253 326 -297 84 -25 229 -23 312 4 208 67 343 257 343 482 0 227
-141 423 -348 484 -68 20 -183 27 -247 16z m177 -222 c53 -16 121 -77 149
-135 33 -69 34 -207 1 -278 -49 -106 -117 -150 -237 -150 -95 0 -143 21 -199
87 -49 56 -70 131 -64 222 11 164 107 263 257 265 29 1 71 -4 93 -11z"/>
<path d="M4433 1825 c-83 -23 -152 -63 -214 -124 -96 -96 -139 -208 -139 -361
0 -243 127 -418 349 -484 79 -23 232 -21 312 4 121 37 229 127 285 237 27 53
29 68 32 181 l4 122 -261 0 -261 0 0 -85 0 -85 150 0 c171 0 169 1 118 -76
-49 -72 -112 -104 -208 -103 -127 0 -199 40 -246 135 -75 154 -23 350 111 413
93 44 229 21 287 -48 l27 -31 131 0 131 0 -6 23 c-27 93 -118 203 -206 248
-95 48 -282 64 -396 34z"/>
<path d="M1200 1336 l0 -496 120 0 120 0 0 179 0 179 133 5 c167 6 211 20 288
96 71 69 94 135 87 245 -8 124 -62 200 -178 255 -54 26 -60 26 -312 29 l-258
3 0 -495z m462 294 c21 -6 44 -21 53 -33 23 -33 19 -91 -8 -123 -20 -23 -33
-27 -110 -34 -105 -10 -175 -40 -235 -100 -23 -24 -45 -40 -48 -37 -9 9 14
104 36 147 44 86 125 151 219 176 58 16 50 16 93 4z"/>
<path d="M2080 1336 l0 -496 120 0 120 0 0 191 0 190 31 -3 c29 -3 37 -14 133
-188 l102 -185 137 -3 137 -3 -49 83 c-26 46 -78 134 -115 197 -37 62 -65 114
-64 115 61 25 129 71 155 105 69 90 80 220 28 326 -29 59 -77 103 -152 138
-45 21 -64 22 -315 25 l-268 3 0 -495z m478 277 c15 -11 34 -39 42 -61 13 -37
13 -47 0 -84 -22 -62 -59 -80 -181 -86 l-99 -5 0 133 0 133 105 -5 c85 -4 111
-9 133 -25z"/>
<path d="M5200 1335 l0 -495 115 0 115 0 2 188 3 187 30 3 c29 2 33 -2 134
-188 l104 -190 134 0 c73 0 133 2 133 4 0 2 -49 88 -110 192 -60 104 -110 192
-110 195 0 4 16 13 35 19 53 18 129 92 155 152 19 44 22 65 18 138 -5 101 -30
154 -100 214 -76 66 -133 76 -414 76 l-244 0 0 -495z m432 295 c56 -16 88 -60
88 -122 0 -43 -4 -54 -33 -83 -37 -37 -94 -49 -197 -43 l-55 3 -3 114 c-1 63
0 121 2 128 7 16 143 18 198 3z"/>
<path d="M6120 1335 l0 -495 300 0 300 0 0 95 0 95 -180 0 -180 0 0 115 0 115
160 0 160 0 0 90 0 90 -160 0 -160 0 0 100 0 100 180 0 180 0 0 95 0 95 -300
0 -300 0 0 -495z"/>
</g>
</svg>
