<?xml version="1.0" standalone="no"?>
<!DOCTYPE svg PUBLIC "-//W3C//DTD SVG 20010904//EN"
 "http://www.w3.org/TR/2001/REC-SVG-20010904/DTD/svg10.dtd">
<svg version="1.0" xmlns="http://www.w3.org/2000/svg"
 width="2000.000000pt" height="521.000000pt" viewBox="0 0 2000.000000 521.000000"
 preserveAspectRatio="xMidYMid meet">

<g transform="translate(0.000000,521.000000) scale(0.100000,-0.100000)"
fill="#000000" stroke="none">
<path d="M2770 5199 c-183 -18 -356 -63 -555 -147 l-109 -46 109 -22 c392 -79
753 -284 1011 -575 104 -116 213 -282 279 -424 95 -203 107 -225 154 -277 101
-113 232 -170 391 -170 193 0 346 85 451 250 72 114 93 297 50 434 -40 124
-188 327 -359 489 -133 126 -259 215 -426 299 -315 159 -650 222 -996 189z"/>
<path d="M1598 5020 c-221 -40 -499 -165 -706 -319 -491 -364 -775 -986 -723
-1586 6 -71 11 -136 11 -142 0 -27 17 -11 39 35 38 80 165 262 245 354 197
226 480 416 767 516 119 42 293 79 429 92 202 19 287 54 395 164 163 164 199
392 98 604 -37 76 -150 190 -228 229 -99 49 -230 71 -327 53z"/>
<path d="M6410 4384 c-189 -41 -349 -189 -396 -368 -21 -78 -18 -231 6 -308
77 -251 336 -398 629 -358 96 13 203 49 272 92 l49 30 0 209 0 209 -110 0
-110 0 0 -154 0 -154 -47 -19 c-34 -13 -74 -18 -138 -18 -76 0 -99 5 -145 26
-70 33 -126 89 -159 159 -37 79 -37 201 0 280 58 124 145 181 289 188 100 5
168 -16 244 -74 l46 -35 74 70 75 71 -47 40 c-129 111 -338 156 -532 114z"/>
<path d="M12143 4385 c-103 -22 -190 -70 -263 -144 -108 -109 -150 -214 -150
-371 0 -151 45 -263 146 -365 216 -220 627 -214 833 11 94 103 136 218 134
369 -2 190 -103 357 -270 448 -114 61 -289 83 -430 52z m293 -217 c60 -31 118
-93 148 -157 32 -71 30 -207 -5 -281 -36 -77 -68 -112 -138 -149 -146 -78
-330 -36 -418 96 -120 178 -49 427 141 503 74 29 202 24 272 -12z"/>
<path d="M7510 3870 l0 -510 120 0 120 0 0 145 0 145 108 0 108 0 100 -145 99
-145 127 0 128 0 -83 118 c-46 64 -97 138 -115 164 l-33 47 38 20 c53 27 118
97 145 156 19 42 23 67 23 150 0 89 -3 106 -28 156 -30 63 -93 126 -156 158
-87 45 -139 51 -428 51 l-273 0 0 -510z m560 298 c59 -31 82 -65 88 -132 6
-71 -2 -98 -39 -141 -43 -49 -105 -65 -251 -65 l-118 0 0 180 0 180 138 0
c123 0 142 -2 182 -22z"/>
<path d="M8910 4047 c0 -358 4 -397 54 -496 34 -66 122 -144 193 -171 131 -49
295 -49 426 0 69 26 153 100 190 167 52 97 57 138 57 500 l0 333 -115 0 -115
0 0 -318 c0 -242 -3 -330 -14 -365 -32 -106 -96 -151 -216 -152 -105 0 -154
27 -195 110 l-30 60 -3 333 -3 332 -115 0 -114 0 0 -333z"/>
<path d="M10390 3870 l0 -510 120 0 120 0 0 139 0 138 163 6 c184 6 262 24
343 80 174 120 195 403 40 545 -107 98 -169 112 -513 112 l-273 0 0 -510z
m560 298 c64 -32 90 -76 90 -150 0 -67 -16 -104 -59 -141 -40 -34 -109 -47
-241 -47 l-110 0 0 180 0 180 138 0 c123 0 143 -2 182 -22z"/>
<path d="M4663 3788 c3 -9 11 -72 18 -140 39 -409 -70 -830 -311 -1193 -59
-88 -110 -146 -260 -296 -158 -156 -192 -196 -218 -250 -40 -84 -51 -136 -52
-234 0 -154 45 -262 154 -371 118 -117 233 -161 401 -151 201 11 335 105 501
353 441 660 399 1542 -101 2154 -63 77 -140 152 -132 128z"/>
<path d="M400 2894 c-183 -49 -335 -203 -378 -384 -31 -131 -23 -399 19 -604
144 -709 719 -1274 1434 -1409 l75 -15 -74 78 c-339 355 -526 879 -487 1363
10 116 21 184 55 342 41 187 -8 359 -139 490 -132 132 -328 186 -505 139z"/>
<path d="M9618 2495 c-224 -43 -418 -171 -542 -359 -95 -144 -136 -286 -136
-471 0 -236 72 -423 224 -582 81 -86 157 -141 260 -188 124 -57 192 -70 366
-70 183 1 258 18 404 92 75 39 109 65 192 147 90 90 106 112 151 206 75 152
88 213 87 400 -1 125 -5 170 -22 233 -62 226 -232 428 -445 528 -146 68 -374
95 -539 64z m325 -373 c114 -41 212 -142 252 -261 38 -115 35 -296 -6 -405
-43 -115 -138 -210 -254 -252 -69 -25 -231 -25 -300 0 -118 43 -210 134 -256
255 -27 69 -38 257 -20 342 36 172 150 293 316 336 68 17 196 10 268 -15z"/>
<path d="M15865 2495 c-142 -26 -234 -74 -322 -168 -86 -93 -108 -155 -108
-312 0 -111 2 -125 29 -182 35 -77 127 -168 213 -212 34 -17 149 -60 254 -96
203 -70 259 -99 296 -154 47 -70 20 -167 -57 -208 -58 -31 -156 -32 -217 -2
-46 22 -88 80 -99 137 l-6 32 -214 0 -214 0 6 -42 c31 -228 169 -377 410 -443
94 -26 293 -31 394 -11 270 55 440 248 440 500 0 69 -25 162 -57 210 -74 113
-166 169 -433 264 -179 64 -242 92 -278 126 -107 97 -37 255 114 256 34 0 67
-8 103 -26 51 -26 73 -55 95 -126 5 -16 24 -18 221 -18 165 0 215 3 215 13 -1
39 -32 152 -55 198 -107 209 -417 322 -730 264z"/>
<path d="M17337 2500 c-243 -44 -406 -179 -446 -368 -24 -117 -8 -249 42 -335
36 -60 124 -140 195 -176 33 -17 148 -60 253 -96 203 -70 259 -99 296 -154 47
-70 20 -167 -58 -209 -62 -33 -178 -29 -232 8 -37 25 -87 106 -87 142 0 17
-14 18 -213 18 l-213 0 7 -59 c24 -210 168 -361 405 -426 94 -26 293 -31 394
-11 220 44 375 180 425 371 32 123 12 260 -52 353 -71 104 -166 161 -416 248
-168 59 -255 98 -289 131 -76 73 -53 199 42 237 111 44 237 -9 268 -112 l13
-42 214 0 c166 0 215 3 215 13 -1 43 -34 157 -61 208 -60 112 -195 209 -342
245 -74 18 -292 27 -360 14z"/>
<path d="M18993 2495 c-269 -49 -483 -208 -605 -450 -39 -77 -66 -173 -78
-281 -47 -426 200 -799 606 -916 105 -30 353 -33 453 -5 199 55 350 155 466
309 161 215 207 532 115 805 -129 385 -536 614 -957 538z m259 -356 c125 -27
233 -113 288 -232 72 -152 67 -362 -12 -508 -145 -273 -564 -293 -732 -36 -60
91 -80 165 -79 302 0 136 18 209 73 294 95 149 276 219 462 180z"/>
<path d="M11470 2494 c-335 -64 -573 -283 -652 -599 -31 -127 -31 -353 1 -470
82 -303 299 -511 609 -581 113 -26 320 -24 427 5 229 61 417 211 521 416 l49
97 3 199 3 199 -435 0 -436 0 0 -145 0 -145 251 0 251 0 -7 -27 c-3 -15 -18
-47 -33 -72 -83 -142 -252 -217 -431 -191 -183 26 -299 115 -362 279 -27 69
-37 248 -20 333 38 180 171 310 348 338 148 24 309 -30 375 -126 l23 -34 222
0 221 0 -10 38 c-43 156 -179 319 -336 401 -130 67 -202 83 -392 86 -91 2
-176 1 -190 -1z"/>
<path d="M6000 1661 l0 -831 195 0 195 0 2 298 3 297 205 6 c143 4 223 11 263
23 189 53 326 186 372 361 19 76 19 214 0 290 -47 180 -186 310 -386 361 -52
13 -136 17 -456 21 l-393 5 0 -831z m800 474 c85 -44 112 -147 60 -232 -31
-51 -71 -65 -205 -74 -182 -11 -283 -56 -404 -180 l-61 -63 0 39 c1 99 47 223
121 322 112 150 370 249 489 188z"/>
<path d="M7470 1661 l0 -831 200 0 200 0 0 315 0 315 48 0 47 0 174 -315 173
-315 224 0 c123 0 224 2 224 4 0 3 -85 150 -189 328 -179 306 -188 323 -167
332 158 68 233 132 290 248 57 116 68 213 41 343 -40 190 -171 319 -382 377
-72 20 -108 22 -480 26 l-403 4 0 -831z m755 475 c85 -36 120 -102 113 -209
-5 -77 -32 -124 -93 -159 -37 -21 -54 -23 -207 -26 l-168 -4 0 212 0 212 158
-4 c119 -3 167 -9 197 -22z"/>
<path d="M12660 1661 l0 -831 200 0 200 0 0 315 0 315 48 0 47 0 173 -315 174
-315 224 0 c123 0 224 2 224 3 0 4 -324 562 -361 623 l-19 31 56 22 c154 59
265 188 300 350 17 84 17 139 0 223 -41 191 -173 323 -383 380 -72 20 -108 22
-480 26 l-403 4 0 -831z m755 475 c52 -22 74 -43 96 -91 39 -84 16 -202 -50
-258 -47 -39 -90 -47 -253 -47 l-148 0 0 211 0 211 158 -4 c118 -3 167 -9 197
-22z"/>
<path d="M14200 1660 l0 -830 500 0 500 0 0 160 0 160 -302 2 -303 3 -3 183
-2 182 270 0 270 0 0 155 0 155 -270 0 -270 0 2 168 3 167 303 3 302 2 0 160
0 160 -500 0 -500 0 0 -830z"/>
<path d="M2056 1149 c-128 -30 -275 -149 -335 -270 -104 -212 -67 -445 98
-610 98 -98 236 -160 474 -213 512 -115 1052 -1 1477 313 100 73 267 237 348
340 63 80 196 290 189 298 -2 2 -42 -14 -88 -36 -123 -58 -276 -108 -418 -138
-115 -25 -146 -27 -351 -28 -196 0 -240 3 -338 23 -212 43 -417 124 -659 263
-40 22 -97 47 -125 55 -59 15 -212 17 -272 3z"/>
</g>
</svg>
